HIERARCHY
ROOT Hips
{
    OFFSET   0.000000   0.000000   0.000000
    CHANNELS 6 Xposition Yposition Zposition Zrotation Xrotation Yrotation
    JOINT Chest
    {
        OFFSET   0.000000   8.007230   0.000000
        CHANNELS 3 Zrotation Xrotation Yrotation
        JOINT Chest2
        {
            OFFSET   0.000000  22.077100   0.000000
            CHANNELS 3 Zrotation Xrotation Yrotation
            JOINT Neck
            {
                OFFSET   0.000000  23.254800  -0.000021
                CHANNELS 3 Zrotation Xrotation Yrotation
                JOINT Head
                {
                    OFFSET   0.000000  14.370000   1.956610
                    CHANNELS 3 Zrotation Xrotation Yrotation
                    End Site
                    {
                        OFFSET   0.000000  19.566000   0.000000
                    }
                }
            }
            JOINT LeftCollar
            {
                OFFSET   3.911900  19.017000  -0.467063
                CHANNELS 3 Zrotation Xrotation Yrotation
                JOINT LeftShoulder
                {
                    OFFSET  10.383700   0.000000   0.000000
                    CHANNELS 3 Zrotation Xrotation Yrotation
                    JOINT LeftElbow
                    {
                        OFFSET  26.662100   0.001529   0.000325
                        CHANNELS 3 Zrotation Xrotation Yrotation
                        JOINT LeftWrist
                        {
                            OFFSET  28.869000  -0.000011  -0.000096
                            CHANNELS 3 Zrotation Xrotation Yrotation
                            JOINT LeftFinger0
                            {
                                OFFSET   2.044650  -2.323460   3.252850
                                CHANNELS 3 Zrotation Xrotation Yrotation
                                JOINT LeftFinger01
                                {
                                    OFFSET   3.088130   0.000000   0.000000
                                    CHANNELS 3 Zrotation Xrotation Yrotation
                                    JOINT LeftFinger02
                                    {
                                        OFFSET   2.639460   0.000000   0.000000
                                        CHANNELS 3 Zrotation Xrotation Yrotation
                                        End Site
                                        {
                                            OFFSET   2.582190   0.000000   0.000000
                                        }
                                    }
                                }
                            }
                            JOINT LeftFinger1
                            {
                                OFFSET   8.364480   0.000000   3.252850
                                CHANNELS 3 Zrotation Xrotation Yrotation
                                JOINT LeftFinger11
                                {
                                    OFFSET   4.646930   0.000000   0.000000
                                    CHANNELS 3 Zrotation Xrotation Yrotation
                                    JOINT LeftFinger12
                                    {
                                        OFFSET   2.323460   0.000000   0.000000
                                        CHANNELS 3 Zrotation Xrotation Yrotation
                                        End Site
                                        {
                                            OFFSET   2.273050   0.000000   0.000000
                                        }
                                    }
                                }
                            }
                            JOINT LeftFinger2
                            {
                                OFFSET   8.364480   0.000016   1.078090
                                CHANNELS 3 Zrotation Xrotation Yrotation
                                JOINT LeftFinger21
                                {
                                    OFFSET   5.111620   0.000000   0.000000
                                    CHANNELS 3 Zrotation Xrotation Yrotation
                                    JOINT LeftFinger22
                                    {
                                        OFFSET   2.788160   0.000017   0.000000
                                        CHANNELS 3 Zrotation Xrotation Yrotation
                                        End Site
                                        {
                                            OFFSET   2.727660   0.000000   0.000000
                                        }
                                    }
                                }
                            }
                            JOINT LeftFinger3
                            {
                                OFFSET   7.899780   0.000015  -1.078090
                                CHANNELS 3 Zrotation Xrotation Yrotation
                                JOINT LeftFinger31
                                {
                                    OFFSET   4.646920   0.000000   0.000000
                                    CHANNELS 3 Zrotation Xrotation Yrotation
                                    JOINT LeftFinger32
                                    {
                                        OFFSET   2.323470   0.000000   0.000000
                                        CHANNELS 3 Zrotation Xrotation Yrotation
                                        End Site
                                        {
                                            OFFSET   2.273050   0.000000   0.000000
                                        }
                                    }
                                }
                            }
                            JOINT LeftFinger4
                            {
                                OFFSET   7.435090   0.000000  -3.252850
                                CHANNELS 3 Zrotation Xrotation Yrotation
                                JOINT LeftFinger41
                                {
                                    OFFSET   3.717550   0.000000   0.000000
                                    CHANNELS 3 Zrotation Xrotation Yrotation
                                    JOINT LeftFinger42
                                    {
                                        OFFSET   1.858760   0.000000   0.000000
                                        CHANNELS 3 Zrotation Xrotation Yrotation
                                        End Site
                                        {
                                            OFFSET   1.818440   0.000000   0.000000
                                        }
                                    }
                                }
                            }
                        }
                    }
                }
            }
            JOINT RightCollar
            {
                OFFSET  -3.911900  19.017000  -0.467062
                CHANNELS 3 Zrotation Xrotation Yrotation
                JOINT RightShoulder
                {
                    OFFSET -10.383700   0.000015   0.000000
                    CHANNELS 3 Zrotation Xrotation Yrotation
                    JOINT RightElbow
                    {
                        OFFSET -26.662100   0.001341   0.000385
                        CHANNELS 3 Zrotation Xrotation Yrotation
                        JOINT RightWrist
                        {
                            OFFSET -28.869000   0.000025  -0.000080
                            CHANNELS 3 Zrotation Xrotation Yrotation
                            JOINT RightFinger0
                            {
                                OFFSET  -2.044650  -2.323490   3.252850
                                CHANNELS 3 Zrotation Xrotation Yrotation
                                JOINT RightFinger01
                                {
                                    OFFSET  -3.088130   0.000000   0.000000
                                    CHANNELS 3 Zrotation Xrotation Yrotation
                                    JOINT RightFinger02
                                    {
                                        OFFSET  -2.639460   0.000000   0.000000
                                        CHANNELS 3 Zrotation Xrotation Yrotation
                                        End Site
                                        {
                                            OFFSET  -2.582190   0.000000   0.000000
                                        }
                                    }
                                }
                            }
                            JOINT RightFinger1
                            {
                                OFFSET  -8.364480   0.000000   3.252850
                                CHANNELS 3 Zrotation Xrotation Yrotation
                                JOINT RightFinger11
                                {
                                    OFFSET  -4.646930   0.000000   0.000000
                                    CHANNELS 3 Zrotation Xrotation Yrotation
                                    JOINT RightFinger12
                                    {
                                        OFFSET  -2.323470   0.000000   0.000000
                                        CHANNELS 3 Zrotation Xrotation Yrotation
                                        End Site
                                        {
                                            OFFSET  -2.273050   0.000000   0.000000
                                        }
                                    }
                                }
                            }
                            JOINT RightFinger2
                            {
                                OFFSET  -8.364480   0.000000   1.078090
                                CHANNELS 3 Zrotation Xrotation Yrotation
                                JOINT RightFinger21
                                {
                                    OFFSET  -5.111610   0.000000   0.000000
                                    CHANNELS 3 Zrotation Xrotation Yrotation
                                    JOINT RightFinger22
                                    {
                                        OFFSET  -2.788160   0.000000   0.000000
                                        CHANNELS 3 Zrotation Xrotation Yrotation
                                        End Site
                                        {
                                            OFFSET  -2.727660   0.000000   0.000000
                                        }
                                    }
                                }
                            }
                            JOINT RightFinger3
                            {
                                OFFSET  -7.899780   0.000000  -1.078090
                                CHANNELS 3 Zrotation Xrotation Yrotation
                                JOINT RightFinger31
                                {
                                    OFFSET  -4.646920   0.000000   0.000000
                                    CHANNELS 3 Zrotation Xrotation Yrotation
                                    JOINT RightFinger32
                                    {
                                        OFFSET  -2.323470   0.000000   0.000000
                                        CHANNELS 3 Zrotation Xrotation Yrotation
                                        End Site
                                        {
                                            OFFSET  -2.273050   0.000000   0.000000
                                        }
                                    }
                                }
                            }
                            JOINT RightFinger4
                            {
                                OFFSET  -7.435090   0.000000  -3.252850
                                CHANNELS 3 Zrotation Xrotation Yrotation
                                JOINT RightFinger41
                                {
                                    OFFSET  -3.717550   0.000000   0.000000
                                    CHANNELS 3 Zrotation Xrotation Yrotation
                                    JOINT RightFinger42
                                    {
                                        OFFSET  -1.858770   0.000000   0.000000
                                        CHANNELS 3 Zrotation Xrotation Yrotation
                                        End Site
                                        {
                                            OFFSET  -1.818440   0.000000   0.000000
                                        }
                                    }
                                }
                            }
                        }
                    }
                }
            }
        }
    }
    JOINT LeftHip
    {
        OFFSET   9.783010   0.000000   0.000000
        CHANNELS 3 Zrotation Xrotation Yrotation
        JOINT LeftKnee
        {
            OFFSET   0.000070 -41.789100   0.000028
            CHANNELS 3 Zrotation Xrotation Yrotation
            JOINT LeftAnkle
            {
                OFFSET   0.000087 -41.133200  -0.000100
                CHANNELS 3 Zrotation Xrotation Yrotation
                JOINT LeftToe
                {
                    OFFSET   0.000000  -6.358960  14.674500
                    CHANNELS 3 Zrotation Xrotation Yrotation
                    End Site
                    {
                        OFFSET   0.000000   0.000000   3.913200
                    }
                }
            }
        }
    }
    JOINT RightHip
    {
        OFFSET  -9.783020   0.000000   0.000000
        CHANNELS 3 Zrotation Xrotation Yrotation
        JOINT RightKnee
        {
            OFFSET   0.000044 -41.789100  -0.000870
            CHANNELS 3 Zrotation Xrotation Yrotation
            JOINT RightAnkle
            {
                OFFSET  -0.000090 -41.133200  -0.000245
                CHANNELS 3 Zrotation Xrotation Yrotation
                JOINT RightToe
                {
                    OFFSET   0.000000  -6.358960  14.674500
                    CHANNELS 3 Zrotation Xrotation Yrotation
                    End Site
                    {
                        OFFSET   0.000000   0.000000   3.913200
                    }
                }
            }
        }
    }
}
MOTION
Frames: 5
Frame Time:   0.016667
  1.041650  89.408400   1.919710  -2.554780  -7.505590  -0.438959   1.048270   3.636890   0.258586   2.086370   7.277890   0.451673   1.721710   1.339850  -0.042600   2.832980   2.709800   0.780866  -2.894510  -0.653024   0.487105 -75.626500  20.046700   3.246070  -2.574330  -4.844160 -15.593400  17.987700 -22.784700   3.662850  39.877100  29.476000 -70.077900 -10.459800   0.008176   0.001577  -0.229897   0.002663  -0.002752 -24.560900   5.988660 -12.859800 -20.648000  -0.010110  -0.002202 -14.453600  -0.002181  -0.006949 -24.350800  -0.123557   0.300864 -24.351100  -0.004454  -0.001680 -16.217800  -0.001677  -0.004586 -23.766800  -0.120725   0.302242 -23.767100  -0.007197  -0.005777 -15.838900  -0.003462  -0.005620 -22.487500  -0.114513   0.305135 -33.731700  -0.008198  -0.005086 -22.465300   0.003864  -0.007117   7.996730  -0.648080   2.411960  72.856200  10.277200  -8.770010   0.489575  -7.241640  14.217600 -16.653400  -5.259680  -0.705060 -39.404200  30.325000  64.203600  27.765100  -0.000216   0.000210   8.893340  -0.002300   0.002388  26.210100   3.361770   6.786450  21.608100   0.000374  -0.013057  15.138200  -0.014669   0.000088  27.611800   2.793350   5.324810  30.412400  -0.000826  -0.000075  20.254700  -0.000516  -0.000286  25.009700   0.414522   0.888468  25.012800  -0.002182   0.002999  16.665200  -0.001274   0.000493  34.019700   0.458359   0.678696  51.033400  -0.000718   0.004847  33.988300   0.002315  -0.003900   2.391480  11.742200   2.916410   1.441710   0.102524   6.774610  -2.007440  -5.115890   2.915180  -0.000000   0.000000   0.000000   2.903030  11.015700  -4.909600   1.097690   0.812772 -10.762300  -1.326080  -5.517920  -0.581448   0.000000   0.000000   0.000000
  1.041660  89.408400   1.926800  -2.563450  -7.508240  -0.460882   1.048420   3.645570   0.258633   2.086690   7.295240   0.451645   1.739960   1.355810  -0.042601   2.863070   2.742030   0.764061  -2.888370  -0.657955   0.497346 -75.624800  20.065900   3.238510  -2.577080  -4.854970 -15.590400  17.976400 -22.784500   3.656520  39.870300  29.486100 -70.093600 -10.473500   0.008171   0.001605  -0.236782   0.002664  -0.002769 -24.569900   5.992970 -12.863900 -20.656100  -0.010113  -0.002185 -14.459300  -0.002181  -0.006949 -24.357200  -0.123368   0.291645 -24.357500  -0.004458  -0.001673 -16.222100  -0.001687  -0.004593 -23.770800  -0.120541   0.292981 -23.771100  -0.007199  -0.005774 -15.838800  -0.003470  -0.005613 -22.487500  -0.114335   0.295797 -33.731700  -0.008201  -0.005077 -22.465300   0.003861  -0.007115   8.000140  -0.649787   2.415610  72.853600  10.295000  -8.764730   0.494770  -7.254490  14.229600 -16.641100  -5.260170  -0.696774 -39.404400  30.322800  64.189600  27.768200  -0.000223   0.000208   8.893290  -0.002300   0.002380  26.218700   3.361770   6.786450  21.615000   0.000377  -0.013060  15.138200  -0.014672   0.000086  27.610800   2.797310   5.331940  30.423300  -0.000838  -0.000079  20.262000  -0.000522  -0.000272  25.012800   0.421663   0.903582  25.016100  -0.002192   0.002996  16.665200  -0.001279   0.000502  34.025600   0.458276   0.678550  51.042300  -0.000724   0.004847  33.994200   0.002309  -0.003895   2.392390  11.742700   2.911980   1.441380   0.132793   6.788980  -2.007240  -5.139720   2.924750  -0.000000   0.000000  -0.000000   2.903230  11.021000  -4.908100   1.105490   0.815579 -10.750800  -1.324870  -5.520320  -0.569763  -0.000000   0.000000   0.000000
  1.041660  89.408300   1.938560  -2.578800  -7.514740  -0.501548   1.048540   3.663830   0.258683   2.086880   7.331750   0.451367   1.773020   1.376960  -0.042613   2.917610   2.784310   0.731493  -2.877480  -0.669578   0.515089 -75.621100  20.101800   3.222980  -2.581820  -4.872650 -15.587600  17.955400 -22.783000   3.644140  39.864700  29.501600 -70.117900 -10.492200   0.008156   0.001632  -0.246122   0.002666  -0.002787 -24.580000   5.998970 -12.870100 -20.665000  -0.010120  -0.002146 -14.465500  -0.002183  -0.006949 -24.368000  -0.123179   0.281390 -24.368400  -0.004471  -0.001654 -16.229300  -0.001712  -0.004608 -23.777200  -0.120357   0.282692 -23.777500  -0.007204  -0.005767 -15.838600  -0.003491  -0.005593 -22.487500  -0.114157   0.285421 -33.731700  -0.008209  -0.005055 -22.465300   0.003849  -0.007111   8.007400  -0.655242   2.423840  72.847700  10.331200  -8.749770   0.503287  -7.275010  14.251800 -16.622600  -5.263080  -0.683037 -39.404900  30.321000  64.169000  27.774200  -0.000231   0.000202   8.893240  -0.002299   0.002366  26.232400   3.361770   6.786450  21.626000   0.000383  -0.013069  15.138200  -0.014682   0.000073  27.609000   2.805120   5.346130  30.442200  -0.000865  -0.000090  20.274500  -0.000541  -0.000240  25.019300   0.428804   0.918696  25.022800  -0.002218   0.002985  16.665200  -0.001295   0.000523  34.034800   0.457694   0.677631  51.056200  -0.000739   0.004847  34.003500   0.002295  -0.003880   2.394260  11.745900   2.903230   1.440880   0.163975   6.819240  -2.006770  -5.175370   2.939950   0.000000   0.000000   0.000000   2.903800  11.031100  -4.905150   1.116200   0.820094 -10.732100  -1.322520  -5.522720  -0.547166  -0.000000   0.000000   0.000000
  1.041800  89.408300   1.947700  -2.592670  -7.524480  -0.542624   1.048110   3.686210   0.257670   2.086060   7.376490   0.448919   1.804990   1.383000  -0.042896   2.970230   2.796060   0.696018  -2.867640  -0.685683   0.530113 -75.617700  20.133300   3.208120  -2.590300  -4.879710 -15.593400  17.933700 -22.768200   3.630220  39.875700  29.515100 -70.134800 -10.495500   0.008131   0.001624  -0.247775   0.002666  -0.002779 -24.580900   6.001410 -12.874300 -20.666100  -0.010133  -0.002090 -14.466200  -0.002187  -0.006945 -24.379400  -0.123652   0.280182 -24.379800  -0.004490  -0.001623 -16.236900  -0.001746  -0.004627 -23.783200  -0.120816   0.281492 -23.783400  -0.007212  -0.005761 -15.839800  -0.003524  -0.005561 -22.493900  -0.114598   0.284210 -33.741200  -0.008221  -0.005022 -22.471600   0.003827  -0.007106   8.016290  -0.665287   2.434380  72.839900  10.373500  -8.724940   0.509462  -7.288510  14.273100 -16.611600  -5.270550  -0.673710 -39.404500  30.325200  64.158200  27.782700  -0.000218   0.000186   8.893720  -0.002311   0.002349  26.241900   3.364410   6.789660  21.633900   0.000392  -0.013087  15.142300  -0.014698   0.000031  27.609800   2.813860   5.362190  30.458300  -0.000904  -0.000110  20.285200  -0.000573  -0.000194  25.025900   0.427729   0.916054  25.029400  -0.002257   0.002964  16.668500  -0.001324   0.000557  34.039900   0.455877   0.675489  51.063800  -0.000762   0.004847  34.008600   0.002275  -0.003855   2.401430  11.769000   2.892840   1.437750   0.164576   6.856830  -2.005980  -5.193680   2.951110   0.000000   0.000000   0.000000   2.907850  11.040800  -4.901320   1.119590   0.824104 -10.719200  -1.319910  -5.522510  -0.522629  -0.000000   0.000000   0.000000
  1.041930  89.408200   1.957100  -2.608160  -7.536440  -0.588900   1.046670   3.713520   0.253845   2.083410   7.431040   0.440898   1.840310   1.383860  -0.043373   3.028300   2.797760   0.654778  -2.856450  -0.706562   0.547122 -75.611500  20.179500   3.182310  -2.606510  -4.899020 -15.599500  17.907600 -22.734400   3.613420  39.883300  29.528500 -70.138600 -10.499100   0.008097   0.001607  -0.249532   0.002666  -0.002770 -24.580800   6.002170 -12.876400 -20.666200  -0.010149  -0.002021 -14.466300  -0.002195  -0.006939 -24.386400  -0.126961   0.280010 -24.386700  -0.004515  -0.001585 -16.241500  -0.001790  -0.004652 -23.786600  -0.124025   0.281321 -23.786900  -0.007221  -0.005754 -15.841000  -0.003568  -0.005520 -22.500200  -0.117689   0.284037 -33.750600  -0.008234  -0.004980 -22.478000   0.003798  -0.007099   8.027640  -0.678066   2.448610  72.830400  10.423800  -8.692590   0.516171  -7.303060  14.299900 -16.603300  -5.279060  -0.661455 -39.406000  30.328100  64.151600  27.788400  -0.000205   0.000174   8.894190  -0.002322   0.002329  26.249300   3.370780   6.799420  21.640600   0.000403  -0.013110  15.148400  -0.014719   0.000000  27.612500   2.824190   5.381240  30.475700  -0.000955  -0.000136  20.296800  -0.000613  -0.000143  25.036500   0.426653   0.913412  25.039900  -0.002308   0.002936  16.676600  -0.001362   0.000598  34.046200   0.453449   0.672513  51.073300  -0.000792   0.004847  34.014900   0.002248  -0.003822   2.414040  11.804700   2.882300   1.432060   0.165175   6.901610  -2.005340  -5.210500   2.960290   0.000000   0.000000   0.000000   2.915750  11.054400  -4.898110   1.120950   0.826432 -10.704300  -1.317000  -5.520930  -0.494160   0.000000   0.000000   0.000000
